<svg xmlns="http://www.w3.org/2000/svg" xmlns:xlink="http://www.w3.org/1999/xlink" viewBox="0 0 344 89.32"><defs><style>.cls-1{fill:none;stroke-miterlimit:10;stroke-width:2px;stroke:url(#Unbenannter_Verlauf_21);}.cls-2{font-size:30.32px;font-family:Avenir-Light, Avenir;}.cls-2,.cls-3{fill:#fff;}</style><linearGradient id="Unbenannter_Verlauf_21" y1="44.66" x2="344" y2="44.66" gradientUnits="userSpaceOnUse"><stop offset="0" stop-color="#00b1ff"/><stop offset="1" stop-color="#00ffb0"/></linearGradient></defs><title>Element 1</title><g id="Ebene_2" data-name="Ebene 2"><g id="social2"><rect class="cls-1" x="1" y="1" width="342" height="87.32" rx="6" ry="6"/><text class="cls-2" transform="translate(106.46 55.11)">COPY LINK</text><path class="cls-3" d="M77.25,41.77a4.6,4.6,0,0,0,0,6.5l6.36,6.36a4.6,4.6,0,0,0,6.5,0l1-1a4.59,4.59,0,0,0,0-6.5L84.7,40.81a.75.75,0,0,0-1.06,1.06L90,48.23a3.11,3.11,0,0,1,0,4.39l-1,1a3.11,3.11,0,0,1-4.39,0L78.3,47.21a3.11,3.11,0,0,1,0-4.39.75.75,0,0,0-1.06-1.06Z"/><path class="cls-3" d="M65.72,36.67a4.57,4.57,0,0,0,1.35,3.25l6.36,6.36a.73.73,0,0,0,.52.22.75.75,0,0,0,.52-1.28l-6.36-6.36a3.11,3.11,0,0,1,0-4.39l1-1a3.11,3.11,0,0,1,4.39,0l6.36,6.36a3.11,3.11,0,0,1,0,4.39.75.75,0,0,0,1.06,1.06,4.6,4.6,0,0,0,0-6.5l-6.36-6.36a4.6,4.6,0,0,0-6.5,0l-1,1A4.56,4.56,0,0,0,65.72,36.67Z"/></g></g></svg>