<?xml version="1.0" encoding="utf-8"?>
<!-- Generator: Adobe Illustrator 21.1.0, SVG Export Plug-In . SVG Version: 6.00 Build 0)  -->
<svg version="1.1" id="Ebene_1" xmlns="http://www.w3.org/2000/svg" xmlns:xlink="http://www.w3.org/1999/xlink" x="0px" y="0px"
	 viewBox="0 0 70 70" style="enable-background:new 0 0 70 70;" xml:space="preserve">
<style type="text/css">
	.st0{fill:#FFFFFF;}
	.st1{fill:url(#SVGID_1_);}
	.st2{fill:url(#SVGID_2_);}
</style>
<g>
	<g>
		<g>
			<path class="st0" d="M1915,1623c-8.5,0-16.6,3.3-22.6,9.4c-6,6-9.4,14.1-9.4,22.6s3.3,16.6,9.4,22.6c6,6,14.1,9.4,22.6,9.4
				s16.6-3.3,22.6-9.4c6-6,9.4-14.1,9.4-22.6s-3.3-16.6-9.4-22.6C1931.6,1626.3,1923.5,1623,1915,1623z M1936.2,1676.2
				c-5.7,5.7-13.2,8.8-21.2,8.8s-15.5-3.1-21.2-8.8c-5.7-5.7-8.8-13.2-8.8-21.2s3.1-15.5,8.8-21.2c5.7-5.7,13.2-8.8,21.2-8.8
				s15.5,3.1,21.2,8.8c5.7,5.7,8.8,13.2,8.8,21.2S1941.9,1670.5,1936.2,1676.2z"/>
		</g>
	</g>
	<g>
		<path class="st0" d="M1931.6,1666.5L1931.6,1666.5v-22.9c0-0.2-0.1-0.4-0.1-0.5c-0.3-0.9-0.9-1.4-1.9-1.5l0,0h-29.4
			c-0.2,0-0.4,0.1-0.5,0.1c-0.9,0.4-1.3,1-1.5,1.9l0,0v4h1.2v-3.7c0-0.7,0.5-1.2,1.2-1.2h28.6c0.7,0,1.2,0.5,1.2,1.2v22.2
			c0,0.3-0.1,0.6-0.3,0.8c-0.2,0.2-0.5,0.3-0.8,0.3h-10.1v1.2h10.5c0.2,0,0.4-0.1,0.5-0.1C1931,1668,1931.5,1667.4,1931.6,1666.5z"
			/>
		<path class="st0" d="M1931.6,1666.5h0.2v-0.1l0,0v-22.9l0,0c0-0.2-0.1-0.4-0.1-0.5c-0.3-1-1.1-1.5-2.1-1.7v0.2v-0.2l0,0l0,0h-29.4
			l0,0c-0.2,0-0.4,0.1-0.5,0.1c-0.9,0.4-1.5,1.1-1.6,2.1l0,0l0,0v4.2h1.7v-3.9c0-0.3,0.1-0.5,0.2-0.7c0.2-0.1,0.4-0.2,0.7-0.2h28.6
			c0.3,0,0.5,0.1,0.7,0.2c0.2,0.2,0.2,0.4,0.2,0.7v22.2l0,0l0,0c0,0.2-0.1,0.4-0.2,0.6c-0.2,0.2-0.4,0.2-0.6,0.2H1919v1.7h10.7l0,0
			c0.2,0,0.4-0.1,0.6-0.1c0.9-0.4,1.4-1,1.6-2l0,0L1931.6,1666.5h-0.2c-0.1,0.8-0.5,1.3-1.3,1.6c-0.1,0-0.3,0.1-0.4,0.1v0.2v-0.2
			h-10.2v-0.7h9.9c0.4,0,0.7-0.1,1-0.4c0.2-0.3,0.4-0.6,0.4-0.9v-0.1h-0.2h0.2v-22.2c0-0.4-0.1-0.8-0.4-1c-0.3-0.3-0.6-0.4-1-0.4
			h-28.6c-0.4,0-0.8,0.1-1,0.4c-0.3,0.3-0.4,0.6-0.4,1v3.4h-0.7v-3.7l0,0c0.1-0.9,0.5-1.3,1.3-1.7c0.1,0,0.2-0.1,0.4-0.1v-0.2v0.2
			h29.4v-0.2v0.2l0,0l0,0l0,0c0.9,0.1,1.4,0.5,1.7,1.4c0,0.1,0.1,0.2,0.1,0.4h0.2h-0.3L1931.6,1666.5L1931.6,1666.5L1931.6,1666.5
			h-0.2H1931.6z"/>
		<path class="st0" d="M1912.8,1668.4h1.2c0-0.4-0.1-0.8-0.1-1.2c-0.1-0.9-0.3-1.8-0.6-2.7c-0.5-1.6-1.2-3.1-2.2-4.5
			s-2.1-2.6-3.4-3.6c-2-1.5-4.2-2.6-6.6-3.2c-0.6-0.1-1.2-0.2-1.8-0.3c-0.3,0-0.5-0.1-0.8-0.1v1.2c1.2,0.1,2.3,0.3,3.5,0.6
			c2,0.6,3.8,1.6,5.4,2.9c1.8,1.5,3.2,3.3,4.1,5.4c0.6,1.2,1,2.5,1.2,3.8C1912.7,1667.3,1912.7,1667.9,1912.8,1668.4L1912.8,1668.4z
			"/>
		<path class="st0" d="M1912.8,1668.4v0.2h1.2h0.3v-0.3c0-0.4-0.1-0.8-0.1-1.2c-0.1-0.9-0.3-1.9-0.6-2.8c-0.5-1.6-1.3-3.2-2.2-4.5
			c-1-1.4-2.1-2.6-3.5-3.7c-2-1.6-4.3-2.6-6.7-3.2c-0.6-0.1-1.2-0.2-1.8-0.3c-0.3,0-0.6-0.1-0.9-0.1h-0.3v1.7h0.2
			c1.1,0.1,2.3,0.3,3.4,0.6c2,0.6,3.7,1.6,5.3,2.9c1.7,1.5,3.1,3.2,4.1,5.3c0.5,1.2,0.9,2.4,1.2,3.7c0.1,0.5,0.2,1.1,0.2,1.6l0,0
			v0.2L1912.8,1668.4L1912.8,1668.4h0.2l0,0c0-0.6-0.1-1.1-0.2-1.7c-0.2-1.3-0.6-2.6-1.2-3.9c-1-2.1-2.4-4-4.2-5.5
			c-1.6-1.4-3.5-2.4-5.5-3c-1.2-0.4-2.3-0.6-3.5-0.6v0.2h0.2v-1.2h-0.2v0.2c0.3,0,0.6,0,0.8,0.1c0.6,0.1,1.2,0.2,1.8,0.3
			c2.4,0.5,4.6,1.6,6.5,3.1c1.3,1,2.4,2.2,3.4,3.6c0.9,1.4,1.7,2.8,2.2,4.4c0.3,0.9,0.5,1.8,0.6,2.7c0.1,0.4,0.1,0.8,0.1,1.2h0.2
			v-0.2h-1.2V1668.4h0.2H1912.8z"/>
		<path class="st0" d="M1906.3,1668.4h1.2c-0.1-0.7-0.2-1.4-0.4-2c-0.6-1.8-1.6-3.3-2.9-4.6c-1-0.9-2.2-1.6-3.5-2
			c-0.7-0.3-1.5-0.4-2.3-0.5v1.2c0.5,0.1,1,0.2,1.5,0.3c1.3,0.4,2.5,1,3.5,1.9c1.3,1.1,2.1,2.5,2.6,4.1
			C1906.1,1667.3,1906.3,1667.9,1906.3,1668.4z"/>
		<path class="st0" d="M1906.3,1668.4v0.2h1.2h0.3v-0.3c-0.1-0.7-0.2-1.4-0.4-2.1c-0.6-1.8-1.6-3.4-3-4.7c-1-0.9-2.2-1.6-3.5-2.1
			c-0.8-0.3-1.6-0.4-2.4-0.5h-0.3v1.7h0.2c0.5,0.1,1,0.2,1.4,0.3c1.3,0.4,2.4,1,3.4,1.9c1.2,1.1,2.1,2.4,2.6,3.9
			c0.2,0.5,0.3,1.1,0.4,1.6v0.2L1906.3,1668.4L1906.3,1668.4h0.3c-0.1-0.6-0.2-1.2-0.4-1.7c-0.5-1.6-1.4-3-2.7-4.2
			c-1-0.9-2.2-1.6-3.6-2c-0.5-0.1-1-0.2-1.5-0.3v0.2h0.2v-1.2h-0.2v0.2c0.8,0.1,1.5,0.2,2.3,0.5c1.3,0.4,2.4,1.1,3.4,2
			c1.4,1.2,2.3,2.7,2.9,4.4c0.2,0.6,0.3,1.3,0.4,2h0.2v-0.2h-1.2L1906.3,1668.4h0.3H1906.3z"/>
		<path class="st0" d="M1898.4,1665.8v2.6h2.6C1900.6,1667.1,1899.7,1666.2,1898.4,1665.8z"/>
		<path class="st0" d="M1898.4,1665.8h-0.2v2.9h3.2l-0.1-0.3c-0.4-1.4-1.3-2.3-2.8-2.8l-0.3-0.1v0.3H1898.4l-0.1,0.2
			c1.3,0.4,2.1,1.2,2.5,2.5l0.2-0.1v-0.2h-2.4v-2.4H1898.4l-0.1,0.2L1898.4,1665.8z"/>
	</g>
</g>
<g>
	
		<image style="overflow:visible;opacity:0.75;" width="94" height="94" xlink:href="CC028033142BDEF5.png"  transform="matrix(1 0 0 1 -12 -12)">
	</image>
	<g>
		<g>
			<g>
				<linearGradient id="SVGID_1_" gradientUnits="userSpaceOnUse" x1="35" y1="3" x2="35" y2="67">
					<stop  offset="0" style="stop-color:#00B1FF"/>
					<stop  offset="1" style="stop-color:#00FFB0"/>
				</linearGradient>
				<path class="st1" d="M35,3c-8.5,0-16.6,3.3-22.6,9.4C6.3,18.4,3,26.5,3,35s3.3,16.6,9.4,22.6c6,6,14.1,9.4,22.6,9.4
					s16.6-3.3,22.6-9.4c6-6,9.4-14.1,9.4-22.6s-3.3-16.6-9.4-22.6C51.6,6.3,43.5,3,35,3z M56.2,56.2C50.5,61.9,43,65,35,65
					s-15.5-3.1-21.2-8.8C8.1,50.5,5,43,5,35s3.1-15.5,8.8-21.2C19.5,8.1,27,5,35,5s15.5,3.1,21.2,8.8C61.9,19.5,65,27,65,35
					S61.9,50.5,56.2,56.2z"/>
			</g>
			<g>
				<g id="Shape_17_10_">
					<g>
						<linearGradient id="SVGID_2_" gradientUnits="userSpaceOnUse" x1="35" y1="25.1669" x2="35" y2="44.8331">
							<stop  offset="0" style="stop-color:#00B1FF"/>
							<stop  offset="1" style="stop-color:#00FFB0"/>
						</linearGradient>
						<path class="st2" d="M50,27.7c0-0.6-0.3-1.2-0.7-1.7c0,0,0,0,0,0c0,0,0,0,0,0c-0.5-0.5-1.1-0.8-1.8-0.8h-25
							c-0.7,0-1.4,0.3-1.8,0.8c0,0,0,0,0,0c0,0,0,0,0,0c-0.4,0.4-0.7,1-0.7,1.7v14.7c0,0.7,0.3,1.2,0.7,1.7c0,0,0,0,0,0c0,0,0,0,0,0
							c0.5,0.5,1.1,0.8,1.8,0.8h25c0.7,0,1.3-0.3,1.8-0.8c0,0,0,0,0,0c0,0,0,0,0,0c0.4-0.4,0.7-1,0.7-1.7L50,27.7L50,27.7z
							 M40.2,34.2l8.6-7.2c0.1,0.2,0.1,0.4,0.1,0.6v14.7c0,0.2,0,0.4-0.1,0.5L40.2,34.2z M47.5,26.2c0.2,0,0.4,0,0.6,0.1L35,37.2
							L21.9,26.3c0.2-0.1,0.4-0.1,0.6-0.1H47.5z M21.1,42.9c-0.1-0.2-0.1-0.4-0.1-0.5V27.7c0-0.2,0.1-0.4,0.1-0.6l8.6,7.2L21.1,42.9
							z M22.5,43.8c-0.2,0-0.5-0.1-0.7-0.2l8.8-8.8l4,3.4c0.1,0.1,0.2,0.1,0.3,0.1c0.1,0,0.2,0,0.3-0.1l4-3.4l8.8,8.8
							c-0.2,0.1-0.4,0.2-0.7,0.2H22.5L22.5,43.8z"/>
					</g>
				</g>
			</g>
		</g>
	</g>
</g>
</svg>
