<svg xmlns="http://www.w3.org/2000/svg" viewBox="0 0 343 53"><defs><style>.cls-1{fill:none;stroke:#fff;stroke-miterlimit:10;}.cls-2{fill:#fff;}</style></defs><title>Element 3</title><g id="Ebene_2" data-name="Ebene 2"><g id="social_1" data-name="social 1"><rect class="cls-1" x="0.5" y="0.5" width="342" height="52" rx="3.2" ry="3.2"/><path class="cls-2" d="M26.66,24.7a4.66,4.66,0,0,0,0,6.58l6.43,6.43a4.66,4.66,0,0,0,6.58,0l1-1a4.64,4.64,0,0,0,0-6.58L34.2,23.74a.76.76,0,0,0-1.07,1.07l6.43,6.43a3.14,3.14,0,0,1,0,4.44l-1,1a3.14,3.14,0,0,1-4.44,0l-6.43-6.43a3.14,3.14,0,0,1,0-4.44.76.76,0,0,0-1.07-1.07Z"/><path class="cls-2" d="M15,19.54a4.62,4.62,0,0,0,1.36,3.29l6.43,6.43a.74.74,0,0,0,.53.22.76.76,0,0,0,.53-1.29l-6.43-6.43a3.14,3.14,0,0,1,0-4.44l1-1a3.14,3.14,0,0,1,4.44,0l6.43,6.43a3.14,3.14,0,0,1,0,4.44.76.76,0,1,0,1.07,1.07,4.66,4.66,0,0,0,0-6.58L23.9,15.29a4.66,4.66,0,0,0-6.58,0l-1,1A4.62,4.62,0,0,0,15,19.54Z"/></g></g></svg>