<?xml version="1.0" encoding="utf-8"?>
<!-- Generator: Adobe Illustrator 21.1.0, SVG Export Plug-In . SVG Version: 6.00 Build 0)  -->
<svg version="1.1" id="Ebene_1" xmlns="http://www.w3.org/2000/svg" xmlns:xlink="http://www.w3.org/1999/xlink" x="0px" y="0px"
	 viewBox="0 0 80 71" enable-background="new 0 0 80 71" xml:space="preserve">
<g>
	
		<image overflow="visible" opacity="0.75" width="103" height="95" xlink:href="69DB56A8A964F7FC.png"  transform="matrix(1 0 0 1 -11 -12)">
	</image>
	<g>
		<g>
			<g>
				<linearGradient id="SVGID_1_" gradientUnits="userSpaceOnUse" x1="34.9722" y1="27.4258" x2="34.9722" y2="43.8428">
					<stop  offset="0" style="stop-color:#00B1FF"/>
					<stop  offset="1" style="stop-color:#00FFB0"/>
				</linearGradient>
				<path fill="url(#SVGID_1_)" d="M37.8,43.8h-1.7V29.5l-3,2.5l-1-1.2l4.2-3.4h1.5V43.8z"/>
				<linearGradient id="SVGID_2_" gradientUnits="userSpaceOnUse" x1="47.4473" y1="27.4258" x2="47.4473" y2="44.2598">
					<stop  offset="0" style="stop-color:#00B1FF"/>
					<stop  offset="1" style="stop-color:#00FFB0"/>
				</linearGradient>
				<path fill="url(#SVGID_2_)" d="M52,28.9h-6.8L45,34c0.4-0.1,0.7-0.2,1.1-0.3c0.4-0.1,0.8-0.1,1.1-0.1c0.8,0,1.5,0.1,2.1,0.4
					c0.6,0.2,1.2,0.6,1.7,1.1c0.5,0.5,0.8,1,1.1,1.6s0.4,1.3,0.4,2.1c0,0.8-0.1,1.5-0.4,2.2c-0.3,0.7-0.6,1.3-1.1,1.7
					c-0.5,0.5-1,0.9-1.7,1.1s-1.4,0.4-2.2,0.4c-1.2,0-2.2-0.3-3-0.8c-0.8-0.5-1.5-1.3-1.9-2.2l1.5-0.7c0.3,0.7,0.7,1.2,1.3,1.6
					c0.6,0.4,1.3,0.6,2,0.6c0.6,0,1.1-0.1,1.5-0.3c0.5-0.2,0.9-0.5,1.2-0.8c0.3-0.3,0.6-0.8,0.8-1.2c0.2-0.5,0.3-1,0.3-1.6
					c0-0.6-0.1-1.1-0.3-1.6c-0.2-0.5-0.5-0.9-0.9-1.2s-0.8-0.6-1.3-0.8s-1-0.3-1.6-0.3c-0.6,0-1.2,0.1-1.8,0.2
					c-0.6,0.2-1.1,0.4-1.7,0.7l0.2-8.5H52V28.9z"/>
				<linearGradient id="SVGID_3_" gradientUnits="userSpaceOnUse" x1="57.127" y1="27.4258" x2="57.127" y2="32.875">
					<stop  offset="0" style="stop-color:#00B1FF"/>
					<stop  offset="1" style="stop-color:#00FFB0"/>
				</linearGradient>
				<path fill="url(#SVGID_3_)" d="M54.8,27.4h1.4v5.4h-1.4V27.4z M58.1,27.4h1.4v5.4h-1.4V27.4z"/>
			</g>
			<linearGradient id="SVGID_4_" gradientUnits="userSpaceOnUse" x1="44.0998" y1="3.5312" x2="44.0998" y2="67.4688">
				<stop  offset="0" style="stop-color:#00B1FF"/>
				<stop  offset="1" style="stop-color:#00FFB0"/>
			</linearGradient>
			<path fill="url(#SVGID_4_)" d="M38.9,67.1c1.8,0.3,3.4,0.4,5.2,0.4c17.5,0,32-14.4,32-32c0-17.5-14.4-32-32-32
				c-17.5,0-32,14.4-32,32h1.9c0-8.2,3.4-15.7,8.8-21.2c5.5-5.5,13-8.8,21.2-8.8c8.2,0,15.7,3.4,21.2,8.8c5.5,5.5,8.8,13,8.8,21.2
				c0,8.2-3.4,15.7-8.8,21.2c-5.5,5.5-13,8.8-21.2,8.8c-1.7,0-3.2-0.1-4.8-0.4L38.9,67.1L38.9,67.1z"/>
			<linearGradient id="SVGID_5_" gradientUnits="userSpaceOnUse" x1="13.7229" y1="23.1212" x2="13.7229" y2="38.4811">
				<stop  offset="0" style="stop-color:#00B1FF"/>
				<stop  offset="1" style="stop-color:#00FFB0"/>
			</linearGradient>
			<polygon fill="url(#SVGID_5_)" points="21.9,25.2 12.4,35.1 5.9,23.1 4.1,24.1 12,38.5 23.3,26.6 21.9,25.2 			"/>
		</g>
	</g>
</g>
</svg>
