<?xml version="1.0" encoding="utf-8"?>
<!-- Generator: Adobe Illustrator 21.1.0, SVG Export Plug-In . SVG Version: 6.00 Build 0)  -->
<svg version="1.1" id="Ebene_1" xmlns="http://www.w3.org/2000/svg" xmlns:xlink="http://www.w3.org/1999/xlink" x="0px" y="0px"
	 viewBox="0 0 80 71" enable-background="new 0 0 80 71" xml:space="preserve">
<g>
	
		<image overflow="visible" opacity="0.75" width="103" height="95" xlink:href="7BF6471FB06A1128.png"  transform="matrix(1 0 0 1 -11 -12)">
	</image>
	<g>
		<g>
			<g>
				<linearGradient id="SVGID_1_" gradientUnits="userSpaceOnUse" x1="26.9722" y1="27.4258" x2="26.9722" y2="43.8428">
					<stop  offset="0" style="stop-color:#00B1FF"/>
					<stop  offset="1" style="stop-color:#00FFB0"/>
				</linearGradient>
				<path fill="url(#SVGID_1_)" d="M29.8,43.8h-1.7V29.5l-3,2.5l-1-1.2l4.2-3.4h1.5V43.8z"/>
				<linearGradient id="SVGID_2_" gradientUnits="userSpaceOnUse" x1="39.4473" y1="27.4258" x2="39.4473" y2="44.2598">
					<stop  offset="0" style="stop-color:#00B1FF"/>
					<stop  offset="1" style="stop-color:#00FFB0"/>
				</linearGradient>
				<path fill="url(#SVGID_2_)" d="M44,28.9h-6.8L37,34c0.4-0.1,0.7-0.2,1.1-0.3c0.4-0.1,0.8-0.1,1.1-0.1c0.8,0,1.5,0.1,2.1,0.4
					c0.6,0.2,1.2,0.6,1.7,1.1c0.5,0.5,0.8,1,1.1,1.6s0.4,1.3,0.4,2.1c0,0.8-0.1,1.5-0.4,2.2c-0.3,0.7-0.6,1.3-1.1,1.7
					c-0.5,0.5-1,0.9-1.7,1.1s-1.4,0.4-2.2,0.4c-1.2,0-2.2-0.3-3-0.8c-0.8-0.5-1.5-1.3-1.9-2.2l1.5-0.7c0.3,0.7,0.7,1.2,1.3,1.6
					c0.6,0.4,1.3,0.6,2,0.6c0.6,0,1.1-0.1,1.5-0.3c0.5-0.2,0.9-0.5,1.2-0.8c0.3-0.3,0.6-0.8,0.8-1.2c0.2-0.5,0.3-1,0.3-1.6
					c0-0.6-0.1-1.1-0.3-1.6c-0.2-0.5-0.5-0.9-0.9-1.2s-0.8-0.6-1.3-0.8s-1-0.3-1.6-0.3c-0.6,0-1.2,0.1-1.8,0.2
					c-0.6,0.2-1.1,0.4-1.7,0.7l0.2-8.5H44V28.9z"/>
				<linearGradient id="SVGID_3_" gradientUnits="userSpaceOnUse" x1="49.127" y1="27.4258" x2="49.127" y2="32.875">
					<stop  offset="0" style="stop-color:#00B1FF"/>
					<stop  offset="1" style="stop-color:#00FFB0"/>
				</linearGradient>
				<path fill="url(#SVGID_3_)" d="M46.8,27.4h1.4v5.4h-1.4V27.4z M50.1,27.4h1.4v5.4h-1.4V27.4z"/>
			</g>
			<linearGradient id="SVGID_4_" gradientUnits="userSpaceOnUse" x1="36" y1="3.5312" x2="36" y2="67.4688">
				<stop  offset="0" style="stop-color:#00B1FF"/>
				<stop  offset="1" style="stop-color:#00FFB0"/>
			</linearGradient>
			<path fill="url(#SVGID_4_)" d="M40.8,65.1c-1.6,0.3-3.2,0.4-4.8,0.4c-8.2,0-15.7-3.4-21.2-8.8C9.4,51.2,6,43.7,6,35.5
				c0-8.2,3.4-15.7,8.8-21.2c5.5-5.5,13-8.8,21.2-8.8c8.2,0,15.7,3.4,21.2,8.8c5.5,5.5,8.8,13,8.8,21.2H68c0-17.5-14.4-32-32-32
				C18.5,3.5,4,18,4,35.5c0,17.5,14.4,32,32,32c1.7,0,3.4-0.1,5.2-0.4L40.8,65.1L40.8,65.1z"/>
			<linearGradient id="SVGID_5_" gradientUnits="userSpaceOnUse" x1="56.8728" y1="30.7986" x2="76.0753" y2="30.7986">
				<stop  offset="0" style="stop-color:#00B1FF"/>
				<stop  offset="1" style="stop-color:#00FFB0"/>
			</linearGradient>
			<polygon fill="url(#SVGID_5_)" points="56.9,26.6 68.1,38.5 76.1,24.1 74.3,23.1 67.7,35.1 58.3,25.2 56.9,26.6 			"/>
		</g>
	</g>
</g>
</svg>
