<?xml version="1.0" encoding="utf-8"?>
<!-- Generator: Adobe Illustrator 21.1.0, SVG Export Plug-In . SVG Version: 6.00 Build 0)  -->
<svg version="1.1" id="Ebene_1" xmlns="http://www.w3.org/2000/svg" xmlns:xlink="http://www.w3.org/1999/xlink" x="0px" y="0px"
	 viewBox="0 0 70 70" enable-background="new 0 0 70 70" xml:space="preserve">
<g>
	<g>
		<g>
			<path fill="#FFFFFF" stroke="#FFFFFF" stroke-width="0.2" stroke-miterlimit="10" d="M24.8,24h4.9c0.4,0,0.7-0.3,0.7-0.7
				s-0.3-0.7-0.7-0.7h-6.2c-0.4,0-0.9,0.5-0.9,0.9v6.2c0,0.4,0.3,0.7,0.7,0.7S24,30,24,29.6v-4l5.9,5.8c0.1,0.1,0.4,0.2,0.6,0.2
				s0.4-0.1,0.5-0.2c0.3-0.3,0.3-0.8,0-1.1L24.8,24z"/>
			<path fill="#FFFFFF" stroke="#FFFFFF" stroke-width="0.2" stroke-miterlimit="10" d="M46.9,22.5h-6.2c-0.4,0-0.7,0.3-0.7,0.7
				s0.3,0.7,0.7,0.7h4.6l-6.2,6.3c-0.3,0.3-0.3,0.8,0,1.1c0.1,0.1,0.3,0.2,0.5,0.2s0.3-0.1,0.4-0.2l6-6.1v4.3c0,0.4,0.3,0.7,0.7,0.7
				s0.7-0.3,0.7-0.7v-6.2C47.5,23,47.4,22.5,46.9,22.5z"/>
			<path fill="#FFFFFF" stroke="#FFFFFF" stroke-width="0.2" stroke-miterlimit="10" d="M29.9,38.8L24,44.7v-4
				c0-0.4-0.3-0.7-0.7-0.7s-0.7,0.3-0.7,0.7v6.2c0,0.4,0.5,0.6,0.9,0.6h6.2c0.4,0,0.7-0.3,0.7-0.7S30.1,46,29.7,46h-5l6.3-6.2
				c0.3-0.3,0.2-0.7,0-1C30.7,38.5,30.2,38.6,29.9,38.8z"/>
			<path fill="#FFFFFF" stroke="#FFFFFF" stroke-width="0.2" stroke-miterlimit="10" d="M46.8,39.9c-0.4,0-0.7,0.3-0.7,0.7v4.3
				l-6-6.1c-0.3-0.3-0.7-0.3-1,0s-0.3,0.7,0,1l6.3,6.2h-4.7c-0.4,0-0.7,0.3-0.7,0.7s0.3,0.7,0.7,0.7h6.2c0.4,0,0.6-0.2,0.6-0.6v-6.2
				C47.5,40.2,47.2,39.9,46.8,39.9z"/>
		</g>
	</g>
	<path fill="#FFFFFF" d="M35,3c-8.5,0-16.6,3.3-22.6,9.4C6.3,18.4,3,26.5,3,35s3.3,16.6,9.4,22.6c6,6,14.1,9.4,22.6,9.4
		s16.6-3.3,22.6-9.4c6-6,9.4-14.1,9.4-22.6s-3.3-16.6-9.4-22.6C51.6,6.3,43.5,3,35,3z M56.2,56.2C50.5,61.9,43,65,35,65
		s-15.5-3.1-21.2-8.8S5,43,5,35s3.1-15.5,8.8-21.2S27,5,35,5s15.5,3.1,21.2,8.8S65,27,65,35S61.9,50.5,56.2,56.2z"/>
</g>
</svg>
