<?xml version="1.0" encoding="utf-8"?>
<!-- Generator: Adobe Illustrator 21.1.0, SVG Export Plug-In . SVG Version: 6.00 Build 0)  -->
<svg version="1.1" id="Ebene_1" xmlns="http://www.w3.org/2000/svg" xmlns:xlink="http://www.w3.org/1999/xlink" x="0px" y="0px"
	 viewBox="0 0 70 70" enable-background="new 0 0 70 70" xml:space="preserve">
<g>
	
		<image overflow="visible" opacity="0.75" width="94" height="94" xlink:href="723D74F13192776C.png"  transform="matrix(1 0 0 1 -12 -12)">
	</image>
	<g>
		<g>
			<g>
				<g>
					<linearGradient id="SVGID_1_" gradientUnits="userSpaceOnUse" x1="26.9125" y1="22.6" x2="26.9125" y2="31.6">
						<stop  offset="0" style="stop-color:#00B1FF"/>
						<stop  offset="1" style="stop-color:#00FFB0"/>
					</linearGradient>
					<path fill="url(#SVGID_1_)" d="M24.8,24h4.9c0.4,0,0.7-0.3,0.7-0.7s-0.3-0.7-0.7-0.7h-6.2c-0.4,0-0.9,0.5-0.9,0.9v6.2
						c0,0.4,0.3,0.7,0.7,0.7S24,30,24,29.6v-4l5.9,5.8c0.1,0.1,0.4,0.2,0.6,0.2s0.4-0.1,0.5-0.2c0.3-0.3,0.3-0.8,0-1.1L24.8,24z"/>
					<linearGradient id="SVGID_2_" gradientUnits="userSpaceOnUse" x1="43.1549" y1="22.5" x2="43.1549" y2="31.5">
						<stop  offset="0" style="stop-color:#00B1FF"/>
						<stop  offset="1" style="stop-color:#00FFB0"/>
					</linearGradient>
					<path fill="url(#SVGID_2_)" d="M46.9,22.5h-6.2c-0.4,0-0.7,0.3-0.7,0.7s0.3,0.7,0.7,0.7h4.6l-6.2,6.3c-0.3,0.3-0.3,0.8,0,1.1
						c0.1,0.1,0.3,0.2,0.5,0.2s0.3-0.1,0.4-0.2l6-6.1v4.3c0,0.4,0.3,0.7,0.7,0.7s0.7-0.3,0.7-0.7v-6.2C47.5,23,47.4,22.5,46.9,22.5z
						"/>
					<linearGradient id="SVGID_3_" gradientUnits="userSpaceOnUse" x1="26.8947" y1="38.6107" x2="26.8947" y2="47.5">
						<stop  offset="0" style="stop-color:#00B1FF"/>
						<stop  offset="1" style="stop-color:#00FFB0"/>
					</linearGradient>
					<path fill="url(#SVGID_3_)" d="M29.9,38.8L24,44.7v-4c0-0.4-0.3-0.7-0.7-0.7s-0.7,0.3-0.7,0.7v6.2c0,0.4,0.5,0.6,0.9,0.6h6.2
						c0.4,0,0.7-0.3,0.7-0.7S30.1,46,29.7,46h-5l6.3-6.2c0.3-0.3,0.2-0.7,0-1C30.7,38.5,30.2,38.6,29.9,38.8z"/>
					<linearGradient id="SVGID_4_" gradientUnits="userSpaceOnUse" x1="43.1875" y1="38.575" x2="43.1875" y2="47.4">
						<stop  offset="0" style="stop-color:#00B1FF"/>
						<stop  offset="1" style="stop-color:#00FFB0"/>
					</linearGradient>
					<path fill="url(#SVGID_4_)" d="M46.8,39.9c-0.4,0-0.7,0.3-0.7,0.7v4.3l-6-6.1c-0.3-0.3-0.7-0.3-1,0s-0.3,0.7,0,1l6.3,6.2h-4.7
						c-0.4,0-0.7,0.3-0.7,0.7s0.3,0.7,0.7,0.7h6.2c0.4,0,0.6-0.2,0.6-0.6v-6.2C47.5,40.2,47.2,39.9,46.8,39.9z"/>
				</g>
			</g>
			<linearGradient id="SVGID_5_" gradientUnits="userSpaceOnUse" x1="35" y1="3" x2="35" y2="67">
				<stop  offset="0" style="stop-color:#00B1FF"/>
				<stop  offset="1" style="stop-color:#00FFB0"/>
			</linearGradient>
			<path fill="url(#SVGID_5_)" d="M35,3c-8.5,0-16.6,3.3-22.6,9.4C6.3,18.4,3,26.5,3,35s3.3,16.6,9.4,22.6c6,6,14.1,9.4,22.6,9.4
				s16.6-3.3,22.6-9.4c6-6,9.4-14.1,9.4-22.6s-3.3-16.6-9.4-22.6C51.6,6.3,43.5,3,35,3z M56.2,56.2C50.5,61.9,43,65,35,65
				s-15.5-3.1-21.2-8.8S5,43,5,35s3.1-15.5,8.8-21.2S27,5,35,5s15.5,3.1,21.2,8.8S65,27,65,35S61.9,50.5,56.2,56.2z"/>
		</g>
	</g>
</g>
</svg>
