<?xml version="1.0" encoding="utf-8"?>
<!-- Generator: Adobe Illustrator 21.1.0, SVG Export Plug-In . SVG Version: 6.00 Build 0)  -->
<svg version="1.1" id="Ebene_1" xmlns="http://www.w3.org/2000/svg" xmlns:xlink="http://www.w3.org/1999/xlink" x="0px" y="0px"
	 viewBox="0 0 70 70" enable-background="new 0 0 70 70" xml:space="preserve">
<g>
	
		<image overflow="visible" opacity="0.75" width="94" height="94" xlink:href="2486F91560B9001D.png"  transform="matrix(1 0 0 1 -12 -12)">
	</image>
	<g>
		<g>
			<g>
				<linearGradient id="SVGID_1_" gradientUnits="userSpaceOnUse" x1="28" y1="26" x2="28" y2="44">
					<stop  offset="0" style="stop-color:#00B1FF"/>
					<stop  offset="1" style="stop-color:#00FFB0"/>
				</linearGradient>
				<rect x="27" y="26" fill="url(#SVGID_1_)" width="2" height="18"/>
				<linearGradient id="SVGID_2_" gradientUnits="userSpaceOnUse" x1="41" y1="26" x2="41" y2="44">
					<stop  offset="0" style="stop-color:#00B1FF"/>
					<stop  offset="1" style="stop-color:#00FFB0"/>
				</linearGradient>
				<rect x="40" y="26" fill="url(#SVGID_2_)" width="2" height="18"/>
				<linearGradient id="SVGID_3_" gradientUnits="userSpaceOnUse" x1="35" y1="3" x2="35" y2="67">
					<stop  offset="0" style="stop-color:#00B1FF"/>
					<stop  offset="1" style="stop-color:#00FFB0"/>
				</linearGradient>
				<path fill="url(#SVGID_3_)" d="M35,3c-8.5,0-16.6,3.3-22.6,9.4C6.3,18.4,3,26.5,3,35s3.3,16.6,9.4,22.6c6,6,14.1,9.4,22.6,9.4
					s16.6-3.3,22.6-9.4c6-6,9.4-14.1,9.4-22.6s-3.3-16.6-9.4-22.6C51.6,6.3,43.5,3,35,3z M56.2,56.2C50.5,61.9,43,65,35,65
					s-15.5-3.1-21.2-8.8S5,43,5,35s3.1-15.5,8.8-21.2S27,5,35,5s15.5,3.1,21.2,8.8S65,27,65,35S61.9,50.5,56.2,56.2z"/>
			</g>
		</g>
	</g>
</g>
</svg>
