<?xml version="1.0" encoding="utf-8"?>
<!-- Generator: Adobe Illustrator 21.1.0, SVG Export Plug-In . SVG Version: 6.00 Build 0)  -->
<svg version="1.1" id="Ebene_1" xmlns="http://www.w3.org/2000/svg" xmlns:xlink="http://www.w3.org/1999/xlink" x="0px" y="0px"
	 viewBox="0 0 70 70" enable-background="new 0 0 70 70" xml:space="preserve">
<g>
	<g>
		<path fill="#FFFFFF" d="M29,24v22l1.8,0.8l14.2-11v-1.6l-14.2-11L29,24z M31,26.1L42.4,35L31,43.9V26.1z"/>
		<path fill="#FFFFFF" d="M35,3c-8.5,0-16.6,3.3-22.6,9.4C6.3,18.4,3,26.5,3,35s3.3,16.6,9.4,22.6c6,6,14.1,9.4,22.6,9.4
			s16.6-3.3,22.6-9.4c6-6,9.4-14.1,9.4-22.6s-3.3-16.6-9.4-22.6C51.6,6.3,43.5,3,35,3z M56.2,56.2C50.5,61.9,43,65,35,65
			s-15.5-3.1-21.2-8.8S5,43,5,35s3.1-15.5,8.8-21.2S27,5,35,5s15.5,3.1,21.2,8.8S65,27,65,35S61.9,50.5,56.2,56.2z"/>
	</g>
</g>
</svg>
