<?xml version="1.0" encoding="utf-8"?>
<!-- Generator: Adobe Illustrator 21.1.0, SVG Export Plug-In . SVG Version: 6.00 Build 0)  -->
<svg version="1.1" id="Ebene_1" xmlns="http://www.w3.org/2000/svg" xmlns:xlink="http://www.w3.org/1999/xlink" x="0px" y="0px"
	 viewBox="0 0 70 70" enable-background="new 0 0 70 70" xml:space="preserve">
<g>
	
		<image overflow="visible" opacity="0.75" width="94" height="94" xlink:href="9098367F8B445CDD.png"  transform="matrix(1 0 0 1 -12 -12)">
	</image>
	<g>
		<g>
			<g>
				<g>
					<linearGradient id="SVGID_1_" gradientUnits="userSpaceOnUse" x1="32.5516" y1="19.6" x2="32.5516" y2="50.2">
						<stop  offset="0" style="stop-color:#00B1FF"/>
						<stop  offset="1" style="stop-color:#00FFB0"/>
					</linearGradient>
					<path fill="url(#SVGID_1_)" d="M41.5,40.2c-1.6,0-3,0.8-4,1.9l-9.3-5.3c0.2-0.6,0.4-1.2,0.4-1.9c0-0.7-0.1-1.3-0.4-1.9l9.3-5.3
						c0.9,1.2,2.4,1.9,4,1.9c2.8,0,5-2.3,5-5c0-2.8-2.3-5-5-5s-5,2.3-5,5c0,0.7,0.1,1.3,0.4,1.9l-9.3,5.3c-0.9-1.2-2.4-1.9-4-1.9
						c-2.8,0-5,2.3-5,5c0,2.7,2.3,5,5,5c1.6,0,3-0.8,4-1.9l9.3,5.3c-0.2,0.6-0.4,1.2-0.4,1.9c0,2.8,2.3,5,5,5c2.8,0,5-2.3,5-5
						C46.6,42.5,44.3,40.2,41.5,40.2z M41.5,21c2,0,3.6,1.6,3.6,3.6s-1.6,3.6-3.6,3.6s-3.6-1.6-3.6-3.6S39.5,21,41.5,21z M23.6,38.6
						c-2,0-3.6-1.6-3.6-3.6c0-2,1.6-3.6,3.6-3.6s3.6,1.6,3.6,3.6S25.6,38.6,23.6,38.6z M41.5,48.9c-2,0-3.6-1.6-3.6-3.6
						s1.6-3.6,3.6-3.6s3.6,1.6,3.6,3.6C45.1,47.3,43.5,48.9,41.5,48.9z"/>
				</g>
			</g>
			<linearGradient id="SVGID_2_" gradientUnits="userSpaceOnUse" x1="35" y1="3" x2="35" y2="67">
				<stop  offset="0" style="stop-color:#00B1FF"/>
				<stop  offset="1" style="stop-color:#00FFB0"/>
			</linearGradient>
			<path fill="url(#SVGID_2_)" d="M35,3c-8.5,0-16.6,3.3-22.6,9.4C6.3,18.4,3,26.5,3,35s3.3,16.6,9.4,22.6c6,6,14.1,9.4,22.6,9.4
				s16.6-3.3,22.6-9.4c6-6,9.4-14.1,9.4-22.6s-3.3-16.6-9.4-22.6C51.6,6.3,43.5,3,35,3z M56.2,56.2C50.5,61.9,43,65,35,65
				s-15.5-3.1-21.2-8.8S5,43,5,35s3.1-15.5,8.8-21.2S27,5,35,5s15.5,3.1,21.2,8.8S65,27,65,35S61.9,50.5,56.2,56.2z"/>
		</g>
	</g>
</g>
</svg>
