<?xml version="1.0" encoding="utf-8"?>
<!-- Generator: Adobe Illustrator 21.1.0, SVG Export Plug-In . SVG Version: 6.00 Build 0)  -->
<svg version="1.1" id="Ebene_1" xmlns="http://www.w3.org/2000/svg" xmlns:xlink="http://www.w3.org/1999/xlink" x="0px" y="0px"
	 viewBox="0 0 520.5 64" enable-background="new 0 0 520.5 64" xml:space="preserve">
<g>
	<g>
		<path fill="#FFFFFF" stroke="#FFFFFF" stroke-width="0.9379" stroke-miterlimit="10" d="M33.2,52.4v-43L20.4,22.3H12v17.2h8.3
			L33.2,52.4z M13.4,23.6H21l11-11v36.5l-11-11h-7.6V23.6z"/>
		<path fill="#FFFFFF" stroke="#FFFFFF" stroke-width="0.9379" stroke-miterlimit="10" d="M39.5,36.9v1.3c4,0,7.3-3.3,7.3-7.3
			s-3.3-7.3-7.3-7.3v1.3c3.3,0,6,2.7,6,6S42.8,36.9,39.5,36.9z"/>
		<path fill="#FFFFFF" stroke="#FFFFFF" stroke-width="0.9379" stroke-miterlimit="10" d="M39.5,44.8c7.7,0,13.9-6.2,13.9-13.9
			S47.1,17,39.5,17v1.3c6.9,0,12.6,5.6,12.6,12.6s-5.6,12.6-12.6,12.6V44.8z"/>
	</g>
</g>
<line fill="none" stroke="#FFFFFF" stroke-width="2" stroke-linecap="round" stroke-miterlimit="10" x1="76" y1="30.9" x2="514" y2="30.9"/>
</svg>
