<?xml version="1.0" encoding="utf-8"?>
<!-- Generator: Adobe Illustrator 21.1.0, SVG Export Plug-In . SVG Version: 6.00 Build 0)  -->
<svg version="1.1" id="Ebene_1" xmlns="http://www.w3.org/2000/svg" xmlns:xlink="http://www.w3.org/1999/xlink" x="0px" y="0px"
	 viewBox="0 0 64 64" enable-background="new 0 0 64 64" xml:space="preserve">
<g>
	
		<image overflow="visible" opacity="0.75" width="72" height="78" xlink:href="D58514F14B3E2451.png"  transform="matrix(1 0 0 1 -4 -8)">
	</image>
	<g>
		<g>
			<g>
				<linearGradient id="SVGID_1_" gradientUnits="userSpaceOnUse" x1="23.1" y1="8.4" x2="23.1" y2="53.4">
					<stop  offset="0" style="stop-color:#00B1FF"/>
					<stop  offset="1" style="stop-color:#00FFB0"/>
				</linearGradient>
				<linearGradient id="SVGID_2_" gradientUnits="userSpaceOnUse" x1="23.1" y1="7.2545" x2="23.1" y2="54.5455">
					<stop  offset="0" style="stop-color:#00B1FF"/>
					<stop  offset="1" style="stop-color:#00FFB0"/>
				</linearGradient>
				<path fill="url(#SVGID_1_)" stroke="url(#SVGID_2_)" stroke-width="0.949" stroke-miterlimit="10" d="M34.2,53.4v-45L20.7,21.9
					H12v18h8.7L34.2,53.4z M13.4,23.3h7.9l11.5-11.5V50L21.3,38.5h-7.9V23.3z"/>
				<linearGradient id="SVGID_3_" gradientUnits="userSpaceOnUse" x1="45.3" y1="24.2" x2="45.3" y2="37.6">
					<stop  offset="0" style="stop-color:#00B1FF"/>
					<stop  offset="1" style="stop-color:#00FFB0"/>
				</linearGradient>
				<linearGradient id="SVGID_4_" gradientUnits="userSpaceOnUse" x1="45.3089" y1="23.5319" x2="45.3089" y2="38.2681">
					<stop  offset="0" style="stop-color:#00B1FF"/>
					<stop  offset="1" style="stop-color:#00FFB0"/>
				</linearGradient>
				<polygon fill="url(#SVGID_3_)" stroke="url(#SVGID_4_)" stroke-width="0.949" stroke-miterlimit="10" points="51,24.2 
					45.3,29.9 39.5,24.2 38.6,25.1 44.3,30.9 38.6,36.7 39.5,37.6 45.3,31.9 51,37.6 52,36.7 46.3,30.9 52,25.1 				"/>
			</g>
		</g>
	</g>
</g>
</svg>
