<?xml version="1.0" encoding="utf-8"?>
<!-- Generator: Adobe Illustrator 21.1.0, SVG Export Plug-In . SVG Version: 6.00 Build 0)  -->
<svg version="1.1" id="Ebene_1" xmlns="http://www.w3.org/2000/svg" xmlns:xlink="http://www.w3.org/1999/xlink" x="0px" y="0px"
	 viewBox="0 0 110 70" enable-background="new 0 0 110 70" xml:space="preserve">
<g>
	
		<image overflow="visible" opacity="0.75" width="128" height="82" xlink:href="8819DFB50BB5DCE8.png"  transform="matrix(1 0 0 1 -8.5 -6)">
	</image>
	<g>
		<g>
			<linearGradient id="SVGID_1_" gradientUnits="userSpaceOnUse" x1="55.45" y1="9.5" x2="55.45" y2="60.4094">
				<stop  offset="0" style="stop-color:#00B1FF"/>
				<stop  offset="1" style="stop-color:#00FFB0"/>
			</linearGradient>
			<linearGradient id="SVGID_2_" gradientUnits="userSpaceOnUse" x1="55.45" y1="9.25" x2="55.45" y2="60.6594">
				<stop  offset="0" style="stop-color:#00B1FF"/>
				<stop  offset="1" style="stop-color:#00FFB0"/>
			</linearGradient>
			<path fill="url(#SVGID_1_)" stroke="url(#SVGID_2_)" stroke-width="0.5" stroke-miterlimit="10" d="M55.5,9.5
				c13.4,0,26.8,0,40.2,0c3.8,0,6.7,2.3,7.5,5.9c0.2,0.8,0.2,1.6,0.2,2.4c0,11.4,0,22.8,0,34.2c0,2.7-0.8,5-3,6.8
				c-1.3,1-2.7,1.6-4.3,1.6c-10.7,0-21.5,0-32.2,0c-1.4,0-2.2-0.7-2.8-1.9c-1.3-2.8-2.7-5.6-4-8.5c-0.1-0.3-0.2-0.5-0.4-0.8
				C56,48,54.6,48,53.9,49.3c-0.8,1.5-1.6,3.1-2.3,4.7c-0.7,1.5-1.5,2.9-2.2,4.4c-0.6,1.3-1.6,2-3.2,2c-10.1,0-20.3-0.1-30.4,0
				c-4.3,0.2-8.3-2.8-8.3-8.2c0-11.5,0-23.1,0-34.6c0-3.3,1.3-5.8,4.2-7.4c1.2-0.6,2.5-0.7,3.8-0.7c10.7,0,21.5,0,32.2,0
				C50.3,9.5,52.9,9.5,55.5,9.5z M55.6,10.9c-13.2,0-26.4,0-39.7,0c-0.8,0-1.6-0.1-2.4,0.2C10.6,11.9,9,14.2,9,17.5
				c0,11.6,0,23.2,0,34.9c0,0.7,0,1.4,0.2,2.1c0.8,2.7,3.1,4.5,6,4.5c10.3,0,20.7,0,31,0c1.1,0,1.7-0.4,2.2-1.4
				c1.4-2.9,2.8-5.7,4.2-8.6c0.4-0.8,0.9-1.6,1.9-1.9c1.6-0.5,2.9,0.1,3.8,1.9c1.4,2.9,2.8,5.8,4.2,8.7c0.4,0.8,0.9,1.2,1.8,1.2
				c10.7,0,21.4,0,32.1,0c0.9,0,1.7-0.2,2.4-0.6c2.4-1.3,3.4-3.4,3.4-6.1c0-11.2,0-22.5,0-33.7c0-0.7,0-1.4,0-2.2
				c0-0.7-0.2-1.4-0.6-2.1c-1.3-2.4-3.2-3.5-6-3.5C82.2,10.9,68.9,10.9,55.6,10.9z"/>
			<linearGradient id="SVGID_3_" gradientUnits="userSpaceOnUse" x1="34.2991" y1="26.2" x2="34.2991" y2="43.8">
				<stop  offset="0" style="stop-color:#00B1FF"/>
				<stop  offset="1" style="stop-color:#00FFB0"/>
			</linearGradient>
			<linearGradient id="SVGID_4_" gradientUnits="userSpaceOnUse" x1="34.2991" y1="25.95" x2="34.2991" y2="44.05">
				<stop  offset="0" style="stop-color:#00B1FF"/>
				<stop  offset="1" style="stop-color:#00FFB0"/>
			</linearGradient>
			<path fill="url(#SVGID_3_)" stroke="url(#SVGID_4_)" stroke-width="0.5" stroke-miterlimit="10" d="M25.5,35c0-4.8,4-8.8,8.7-8.8
				c5,0,8.9,4,8.9,8.9c0,4.8-4,8.7-8.9,8.7C29.4,43.7,25.4,39.7,25.5,35z M34.3,27.6c-4,0-7.4,3.2-7.4,7.2c0,4.1,3.2,7.5,7,7.6
				c4.4,0,7.7-3.2,7.7-7.4C41.6,30.9,38.3,27.6,34.3,27.6z"/>
			<linearGradient id="SVGID_5_" gradientUnits="userSpaceOnUse" x1="76.699" y1="26.1" x2="76.699" y2="43.7019">
				<stop  offset="0" style="stop-color:#00B1FF"/>
				<stop  offset="1" style="stop-color:#00FFB0"/>
			</linearGradient>
			<linearGradient id="SVGID_6_" gradientUnits="userSpaceOnUse" x1="76.699" y1="25.85" x2="76.699" y2="43.9519">
				<stop  offset="0" style="stop-color:#00B1FF"/>
				<stop  offset="1" style="stop-color:#00FFB0"/>
			</linearGradient>
			<path fill="url(#SVGID_5_)" stroke="url(#SVGID_6_)" stroke-width="0.5" stroke-miterlimit="10" d="M76.5,43.7
				c-4.9-0.1-8.7-4.5-8.6-9.1c0.2-4.6,4.1-8.5,8.8-8.5c4.9,0.1,8.8,4,8.8,8.9C85.5,39.9,81.4,43.8,76.5,43.7z M76.7,27.6
				c-4,0-7.3,3.2-7.3,7.2s3.2,7.5,7,7.5c4.3,0,7.7-3.2,7.7-7.3C84.2,30.9,80.8,27.6,76.7,27.6z"/>
		</g>
	</g>
</g>
</svg>
