<?xml version="1.0" encoding="utf-8"?>
<!-- Generator: Adobe Illustrator 21.1.0, SVG Export Plug-In . SVG Version: 6.00 Build 0)  -->
<svg version="1.1" id="Ebene_1" xmlns="http://www.w3.org/2000/svg" xmlns:xlink="http://www.w3.org/1999/xlink" x="0px" y="0px"
	 viewBox="0 0 110 70" enable-background="new 0 0 110 70" xml:space="preserve">
<g>
	<path fill="#FFFFFF" stroke="#FFFFFF" stroke-width="0.5" stroke-miterlimit="10" d="M55.6,9.5c13.4,0,26.8,0,40.2,0
		c3.8,0,6.7,2.3,7.5,5.9c0.2,0.8,0.2,1.6,0.2,2.4c0,11.4,0,22.8,0,34.2c0,2.7-0.8,5-3,6.8c-1.3,1-2.7,1.6-4.3,1.6
		c-10.7,0-21.5,0-32.2,0c-1.4,0-2.2-0.7-2.8-1.9c-1.3-2.8-2.7-5.6-4-8.5c-0.1-0.3-0.2-0.5-0.4-0.8C56.1,48,54.7,48,54,49.3
		c-0.8,1.5-1.6,3.1-2.3,4.7c-0.7,1.5-1.5,2.9-2.2,4.4c-0.6,1.3-1.6,2-3.2,2c-10.1,0-20.3-0.1-30.4,0c-4.3,0.2-8.3-2.8-8.3-8.2
		c0-11.5,0-23.1,0-34.6c0-3.3,1.3-5.8,4.2-7.4c1.2-0.6,2.5-0.7,3.8-0.7c10.7,0,21.5,0,32.2,0C50.4,9.5,53,9.5,55.6,9.5z M55.7,10.9
		c-13.2,0-26.4,0-39.7,0c-0.8,0-1.6-0.1-2.4,0.2c-2.9,0.8-4.5,3.1-4.5,6.4c0,11.6,0,23.2,0,34.9c0,0.7,0,1.4,0.2,2.1
		c0.8,2.7,3.1,4.5,6,4.5c10.3,0,20.7,0,31,0c1.1,0,1.7-0.4,2.2-1.4c1.4-2.9,2.8-5.7,4.2-8.6c0.4-0.8,0.9-1.6,1.9-1.9
		c1.6-0.5,2.9,0.1,3.8,1.9c1.4,2.9,2.8,5.8,4.2,8.7c0.4,0.8,0.9,1.2,1.8,1.2c10.7,0,21.4,0,32.1,0c0.9,0,1.7-0.2,2.4-0.6
		c2.4-1.3,3.4-3.4,3.4-6.1c0-11.2,0-22.5,0-33.7c0-0.7,0-1.4,0-2.2c0-0.7-0.2-1.4-0.6-2.1c-1.3-2.4-3.2-3.5-6-3.5
		C82.3,10.9,69,10.9,55.7,10.9z"/>
	<path fill="#FFFFFF" stroke="#FFFFFF" stroke-width="0.5" stroke-miterlimit="10" d="M25.6,35c0-4.8,4-8.8,8.7-8.8
		c5,0,8.9,4,8.9,8.9c0,4.8-4,8.7-8.9,8.7C29.5,43.7,25.5,39.7,25.6,35z M34.4,27.6c-4,0-7.4,3.2-7.4,7.2c0,4.1,3.2,7.5,7,7.6
		c4.4,0,7.7-3.2,7.7-7.4C41.7,30.9,38.4,27.6,34.4,27.6z"/>
	<path fill="#FFFFFF" stroke="#FFFFFF" stroke-width="0.5" stroke-miterlimit="10" d="M76.6,43.7c-4.9-0.1-8.7-4.5-8.6-9.1
		c0.2-4.6,4.1-8.5,8.8-8.5c4.9,0.1,8.8,4,8.8,8.9C85.6,39.9,81.5,43.8,76.6,43.7z M76.8,27.6c-4,0-7.3,3.2-7.3,7.2s3.2,7.5,7,7.5
		c4.3,0,7.7-3.2,7.7-7.3C84.3,30.9,80.9,27.6,76.8,27.6z"/>
</g>
</svg>
